<?xml version="1.0" encoding="UTF-8"?>
<svg version="1.1" xmlns="http://www.w3.org/2000/svg" width="500" height="500">
<path d="M0 0 C6.3495494 -0.1021981 12.69888337 -0.17179699 19.04907227 -0.21972656 C21.20507737 -0.23972691 23.36102904 -0.26693624 25.5168457 -0.30175781 C28.63245912 -0.35078853 31.74734971 -0.37308514 34.86328125 -0.390625 C35.81270096 -0.41127014 36.76212067 -0.43191528 37.74031067 -0.45318604 C48.70496813 -0.4567863 57.01643266 3.03579977 64.83984375 10.6484375 C74.66398155 21.34306852 76.37401059 35.29788623 76.2109375 49.37109375 C75.42338026 62.91999513 72.20531104 76.30940938 62.69921875 86.5390625 C54.56507628 93.53255511 45.76251704 95.30551034 35.3515625 95.1953125 C34.33903412 95.1924826 33.32650574 95.18965271 32.28329468 95.18673706 C29.06374062 95.17558254 25.84446935 95.15048646 22.625 95.125 C20.43620195 95.1149641 18.24739951 95.10583931 16.05859375 95.09765625 C10.70563342 95.0756587 5.35283692 95.04222824 0 95 C0 94.34 0 93.68 0 93 C3.07617188 92.70703125 3.07617188 92.70703125 6.15234375 92.4140625 C7.06693359 92.20910156 7.06693359 92.20910156 8 92 C9.60344035 88.79311929 9.12922745 85.30817153 9.11352539 81.78662109 C9.11367142 80.9377684 9.11381744 80.08891571 9.1139679 79.21434021 C9.11326966 76.40068023 9.1054814 73.58708596 9.09765625 70.7734375 C9.09579175 68.82573482 9.094368 66.87803168 9.09336853 64.93032837 C9.08954583 59.79779776 9.07971765 54.66529533 9.06866455 49.53277588 C9.05844512 44.29789613 9.05386977 39.06301184 9.04882812 33.828125 C9.03809517 23.55207093 9.0210217 13.27603781 9 3 C6.03 2.67 3.06 2.34 0 2 C0 1.34 0 0.68 0 0 Z M29 2 C29 32.03 29 62.06 29 93 C39.06473281 93.419749 39.06473281 93.419749 46.58984375 88.55859375 C56.65423117 77.95284563 56.37721673 60.92648015 56.3125 47.1875 C56.30831055 45.96643555 56.30412109 44.74537109 56.29980469 43.48730469 C56.15530103 23.96130461 56.15530103 23.96130461 47.29296875 7.23046875 C41.01520932 1.58709343 38.39311917 2 29 2 Z " fill="#5A7563" transform="translate(216,182)"/>
<path d="M0 0 C16.82546584 -0.5757764 16.82546584 -0.5757764 23.9375 3.8125 C29.73270482 9.95892936 30.12877183 15.82018218 30.2109375 23.96875 C30.23899347 25.52475033 30.26765784 27.08073979 30.296875 28.63671875 C30.33816652 31.07242672 30.37508554 33.50792874 30.40136719 35.94384766 C30.42902557 38.30673197 30.47487463 40.66871506 30.5234375 43.03125 C30.52669037 43.75534058 30.52994324 44.47943115 30.53329468 45.22546387 C30.64001114 49.63295119 31.277545 52.49722614 34 56 C36.22857246 57.22171716 36.22857246 57.22171716 38.6875 57.8125 C39.49574219 58.04582031 40.30398438 58.27914062 41.13671875 58.51953125 C42.05904297 58.75736328 42.05904297 58.75736328 43 59 C43 59.66 43 60.32 43 61 C41.741875 61.268125 40.48375 61.53625 39.1875 61.8125 C36.0000104 62.6065566 33.9671546 63.22284057 32 66 C30.45095027 69.09809945 30.82209444 72.38677274 30.7890625 75.7890625 C30.76097153 77.3867286 30.73230695 78.9843847 30.703125 80.58203125 C30.66204032 83.09651164 30.62514963 85.61080983 30.59863281 88.12548828 C30.57079651 90.5554055 30.52490483 92.9844777 30.4765625 95.4140625 C30.47330963 96.15395416 30.47005676 96.89384583 30.46670532 97.65615845 C30.32776108 103.64191008 29.22751815 109.33204076 25.28125 114.05859375 C24.6934375 114.51363281 24.105625 114.96867187 23.5 115.4375 C22.9121875 115.91058594 22.324375 116.38367188 21.71875 116.87109375 C18.75537798 118.81749037 16.21311508 119.12207883 12.76953125 119.09765625 C11.96708984 119.09443359 11.16464844 119.09121094 10.33789062 119.08789062 C9.50451172 119.07951172 8.67113281 119.07113281 7.8125 119.0625 C6.96751953 119.05798828 6.12253906 119.05347656 5.25195312 119.04882812 C3.16793845 119.03705403 1.08396023 119.0191189 -1 119 C-1 118.34 -1 117.68 -1 117 C0.98567708 116.86979167 2.97135417 116.73958333 4.95703125 116.609375 C7.88487261 115.73606094 8.49444921 114.66136428 10 112 C10.30178563 109.19510392 10.44098082 106.60182188 10.44140625 103.796875 C10.45461411 103.00025452 10.46782196 102.20363403 10.48143005 101.38287354 C10.52225735 98.83854735 10.54395631 96.29457898 10.5625 93.75 C10.58640611 91.21981617 10.61476885 88.68996348 10.65428162 86.15997314 C10.67833457 84.58843471 10.69343911 83.01672352 10.69789124 81.44500732 C10.78623327 75.13800637 11.23837192 69.19013221 15.3125 64.125 C17.85589864 62.11394061 19.92444888 60.96660178 23 60 C22.01 59.34 21.02 58.68 20 58 C18.79121021 57.1546548 17.60441009 56.27727606 16.4375 55.375 C15.53837891 54.70597656 15.53837891 54.70597656 14.62109375 54.0234375 C10.57622111 48.97465672 10.69204166 41.66151283 10.62109375 35.44921875 C10.60409927 34.66859573 10.5871048 33.88797272 10.56959534 33.08369446 C10.51697821 30.61837598 10.47637541 28.15307029 10.4375 25.6875 C10.39346822 23.20415598 10.34677304 20.72093581 10.29469299 18.23774719 C10.26290025 16.69974717 10.23595996 15.16163724 10.21446228 13.62345886 C10.15372678 10.49570513 9.99630184 7.98890553 9 5 C6.89415562 4.19436362 6.89415562 4.19436362 4.4375 3.8125 C3.61121094 3.65394531 2.78492188 3.49539062 1.93359375 3.33203125 C1.29550781 3.22246094 0.65742188 3.11289063 0 3 C0 2.01 0 1.02 0 0 Z " fill="#597462" transform="translate(310,175)"/>
<path d="M0 0 C0 0.99 0 1.98 0 3 C-1.27875 3.12375 -2.5575 3.2475 -3.875 3.375 C-7.34790936 3.69042399 -7.34790936 3.69042399 -10 6 C-11.33248088 10.0821894 -11.17173105 14.24074835 -11.2109375 18.4921875 C-11.2390047 20.18360345 -11.26766916 21.87500958 -11.296875 23.56640625 C-11.33810796 26.22151425 -11.37501428 28.8764385 -11.40136719 31.53173828 C-11.42906378 34.10226852 -11.47492876 36.67197679 -11.5234375 39.2421875 C-11.52669037 40.02987518 -11.52994324 40.81756287 -11.53329468 41.62911987 C-11.64031348 46.45745679 -12.33259241 49.8209305 -15 54 C-17.98730798 56.30271657 -20.42652286 57.80884095 -24 59 C-23.18595703 59.47179687 -23.18595703 59.47179687 -22.35546875 59.953125 C-13.87982124 65.02324207 -13.87982124 65.02324207 -12.44444275 69.87965393 C-11.70852172 73.39058367 -11.80083914 76.95344802 -11.75390625 80.52734375 C-11.72097431 82.22331258 -11.68776256 83.91927599 -11.65429688 85.61523438 C-11.60687999 88.27917857 -11.56241755 90.9430998 -11.52319336 93.60717773 C-11.48339587 96.18495883 -11.43188068 98.76230443 -11.37890625 101.33984375 C-11.3704921 102.13269272 -11.36207794 102.92554169 -11.35340881 103.74241638 C-11.2612834 107.88036664 -11.0469964 111.28636278 -9 115 C-6.84175066 116.02818386 -6.84175066 116.02818386 -4.375 116.3125 C-3.55773437 116.45300781 -2.74046875 116.59351563 -1.8984375 116.73828125 C-1.27195313 116.82464844 -0.64546875 116.91101563 0 117 C0 117.66 0 118.32 0 119 C-2.85520781 119.10876982 -5.70620561 119.18766466 -8.5625 119.25 C-9.36236328 119.28351563 -10.16222656 119.31703125 -10.98632812 119.3515625 C-16.87619322 119.44772356 -20.16215395 118.39205297 -25 115 C-29.66995595 109.96136331 -30.15087503 105.93894364 -30.24609375 99.296875 C-30.27904666 97.74348426 -30.31225805 96.19009898 -30.34570312 94.63671875 C-30.39297285 92.19681738 -30.43738795 89.75693582 -30.47680664 87.31689453 C-30.5168046 84.95581756 -30.56829209 82.59519568 -30.62109375 80.234375 C-30.6295079 79.51433289 -30.63792206 78.79429077 -30.64659119 78.0524292 C-30.7584174 73.412504 -31.42163939 69.36894067 -33 65 C-36.13676126 62.45668006 -39.03357675 61.56663189 -43 61 C-43 60.34 -43 59.68 -43 59 C-39.7 58.01 -36.4 57.02 -33 56 C-30.34255666 46.64024977 -30.62162586 37.13412448 -30.54370117 27.48461914 C-30.52197694 25.22505978 -30.48257476 22.96630803 -30.44140625 20.70703125 C-30.44129044 20.02252396 -30.44117462 19.33801666 -30.4410553 18.63276672 C-30.31582466 12.51896834 -28.56637579 8.64096511 -24.375 4.25 C-17.41075668 -1.05852861 -8.31392076 -0.25321586 0 0 Z " fill="#5B7563" transform="translate(201,175)"/>
<path d="M0 0 C0.33 0 0.66 0 1 0 C1 30.03 1 60.06 1 91 C7.435 90.505 7.435 90.505 14 90 C15.32 90.99 16.64 91.98 18 93 C10.74 93 3.48 93 -4 93 C-2.02 92.505 -2.02 92.505 0 92 C0 61.64 0 31.28 0 0 Z " fill="#525F56" transform="translate(244,184)"/>
<path d="M0 0 C0.66 0 1.32 0 2 0 C2.33 1.65 2.66 3.3 3 5 C4.65 5.33 6.3 5.66 8 6 C8.33 6.99 8.66 7.98 9 9 C5.7 9.33 2.4 9.66 -1 10 C-1.66 9.01 -2.32 8.02 -3 7 C-5.05925139 6.27617533 -5.05925139 6.27617533 -7 6 C-5.5459375 5.62875 -5.5459375 5.62875 -4.0625 5.25 C-2.5465625 4.63125 -2.5465625 4.63125 -1 4 C-0.03122943 1.96756452 -0.03122943 1.96756452 0 0 Z " fill="#536C5B" transform="translate(169,227)"/>
<path d="M0 0 C3.3 0 6.6 0 10 0 C8 3 8 3 4.875 3.6875 C3.92625 3.790625 2.9775 3.89375 2 4 C2 4.33 2 4.66 2 5 C1.15115234 5.16435547 1.15115234 5.16435547 0.28515625 5.33203125 C-0.44832031 5.49058594 -1.18179687 5.64914063 -1.9375 5.8125 C-2.66839844 5.96332031 -3.39929688 6.11414063 -4.15234375 6.26953125 C-4.76207031 6.51058594 -5.37179687 6.75164062 -6 7 C-6.33 7.99 -6.66 8.98 -7 10 C-7.99 10.33 -8.98 10.66 -10 11 C-9.34928072 8.07176325 -8.65065146 6.41562022 -6.0859375 4.77734375 C-4.07869072 3.78790585 -2.0657943 2.85994693 0 2 C0 1.34 0 0.68 0 0 Z " fill="#516556" transform="translate(333,233)"/>
<path d="M0 0 C1.63001953 0.01353516 1.63001953 0.01353516 3.29296875 0.02734375 C4.12441406 0.03894531 4.95585937 0.05054688 5.8125 0.0625 C5.8125 1.0525 5.8125 2.0425 5.8125 3.0625 C4.53375 3.206875 3.255 3.35125 1.9375 3.5 C-0.44442894 3.76892746 -2.03202691 3.98476346 -4.1875 5.0625 C-4.5175 4.4025 -4.8475 3.7425 -5.1875 3.0625 C-7.20419827 1.92899466 -7.20419827 1.92899466 -9.1875 1.0625 C-5.90230525 -0.03256492 -3.45086585 -0.03710608 0 0 Z " fill="#576D5E" transform="translate(195.1875,174.9375)"/>
<path d="M0 0 C3.3 0 6.6 0 10 0 C9.67 1.32 9.34 2.64 9 4 C6.03 3.67 3.06 3.34 0 3 C0 2.01 0 1.02 0 0 Z " fill="#525F57" transform="translate(310,175)"/>
<path d="M0 0 C1.12377697 3.30435084 0.89554742 5.0506862 -0.4375 8.25 C-0.72496094 8.95640625 -1.01242187 9.6628125 -1.30859375 10.390625 C-1.53675781 10.92171875 -1.76492188 11.4528125 -2 12 C-2.99 11.34 -3.98 10.68 -5 10 C-5 9.34 -5 8.68 -5 8 C-4.54625 7.566875 -4.0925 7.13375 -3.625 6.6875 C-1.65690769 4.64371183 -0.93273129 2.65469676 0 0 Z " fill="#53695A" transform="translate(289,244)"/>
<path d="M0 0 C3.96 0 7.92 0 12 0 C12 0.99 12 1.98 12 3 C10.68 3 9.36 3 8 3 C8 2.34 8 1.68 8 1 C5.36 1 2.72 1 0 1 C0 0.67 0 0.34 0 0 Z " fill="#535754" transform="translate(189,175)"/>
</svg>
